<svg width="947" height="352" viewBox="0 0 947 352" fill="none" xmlns="http://www.w3.org/2000/svg">
<g clip-path="url(#clip0)">
<path d="M10.1625 328.086L11.9403 193.025L24.5099 178.298L31.897 190.771L80.5578 190.992L83.0555 128.727L75.7152 128.63L75.9002 114.579L113.609 86.3382L158.158 112.096L158.003 123.84L153.605 123.362L154.333 163.646L298.713 110.799L298.936 93.8118L290.338 93.6987L321.109 50.6839L364.284 85.2329L354.217 85.1004L353.952 105.234L384.362 105.634L409.882 95.0625L438.898 105.723L468.377 81.1495L496.604 103.965L485.699 103.822L485.146 193.591L485.025 202.818L552.119 204.96L553.502 99.8896L575.523 100.179L574.14 205.25L604.348 205.018L604.232 213.827L642.401 214.329L642.269 224.396L690.505 225.03L690.883 196.299L730.52 196.82L748.112 214.881L757.34 215.003L757.472 204.936L847.233 206.118L847.669 172.982L862.499 161.85L877.466 172.115L877.267 187.215L935.366 187.561L936.022 344.888L490.918 344.692L321.016 344.553L10.1625 328.086Z" stroke="#2C2B2B" stroke-width="3" stroke-miterlimit="10"/>
<path d="M556.438 99.9272C559.393 98.4978 563.911 89.9572 565.006 86.4058C566.107 82.4349 563.621 80.0948 565.136 76.5488C566.436 73.4196 568.732 74.2888 573.406 69.7357C577.656 65.5965 577.049 63.9104 579.579 62.8949C584.43 60.8612 588.354 65.5276 591.528 63.4717C593.432 62.2383 592.408 60.337 595.03 52.4007C596.779 46.97 598.054 45.7283 598.901 45.1102C601.021 43.46 603.54 43.2834 606.689 43.1151C610.886 42.9606 616.97 42.8309 619.023 46.214C620.665 48.9625 617.909 51.2335 618.441 58.5821C618.612 61.5209 618.789 64.0403 620.458 64.6916C622.958 65.983 629.093 62.0784 630.842 56.6477C632.81 50.5907 628.039 46.5425 631.036 41.9672C632.322 39.8866 635.067 38.4544 637.173 37.8529C639.695 37.4665 640.732 38.3193 643.669 38.3579C643.878 38.3607 648.914 38.2172 651.467 35.5239C656.141 30.9708 649.334 22.2811 654.26 14.5849C656.186 11.6736 658.931 10.2415 659.986 9.83586C661.465 9.0163 665.259 7.59792 675.091 9.61516C684.923 11.6324 689.943 12.7473 692.203 16.3429C696.102 22.8967 689.076 30.775 693.621 36.0788C696.102 38.8383 700.914 39.7407 702.192 38.2892C703.679 36.8405 700.796 32.8171 702.283 31.3684C703.555 30.3364 705.63 32.0417 707.531 31.0179C710.065 29.7927 708.646 25.9984 710.995 22.883C713.558 19.3509 720.084 17.5489 724.042 19.6986C729.039 22.4912 726.227 28.9568 731.205 33.2174C736.183 37.4781 740.654 32.5027 750.477 35.1492C760.928 38.0136 761.043 45.1468 771.916 47.807C780.28 49.805 785.981 46.9434 786.585 48.8392C787.394 51.1571 779.14 56.712 771.345 59.3362C767.553 60.5448 763.549 61.9605 758.53 60.8456C755.602 60.1778 754.984 59.3306 748.303 56.9353C746.631 56.4938 744.751 55.8398 740.99 54.7415C732.632 52.3241 731.583 52.3103 730.736 52.9285C728.407 54.5759 730.446 59.0076 727.692 61.0689C726.42 62.101 724.745 61.8692 721.605 61.4083C715.741 60.7019 714.507 58.7978 710.937 59.1703C708.837 59.3525 707.564 60.3845 704.81 62.4458C699.943 65.7378 699.283 68.0365 696.529 70.0978C691.018 74.4302 681.148 75.3491 678.466 71.9576C675.783 68.5662 681.509 63.8171 679.084 56.8632C677.671 52.6494 673.73 49.2415 669.34 48.1349C664.533 46.8131 658.015 47.9858 655.443 52.1471C652.446 56.7224 657.427 60.7733 654.808 68.4999C653.495 72.6777 649.861 77.8739 644.811 79.0659C640.393 80.0566 637.912 77.2971 635.793 78.9472C632.192 81.6267 638.149 91.1442 634.319 95.2889C631.979 97.7752 628.864 95.4269 615.439 95.4599C607.889 95.3605 605.99 96.1746 604.334 94.4747C600.822 90.4431 608.068 81.7287 604.555 77.697C601.456 74.0904 592.819 76.9132 589.869 77.9232C586.5 78.9276 582.074 80.5475 578.663 84.6977C573.754 91.1356 575.12 98.9146 575.31 100.385" stroke="#2C2B2B" stroke-width="3" stroke-miterlimit="10"/>
<path d="M833.413 236.269L828.38 236.203L823.137 236.134L823.454 212.016L833.73 212.151L833.413 236.269Z" stroke="#2C2B2B" stroke-width="3" stroke-miterlimit="10"/>
<path d="M814.855 211.903L804.579 211.768L804.262 235.886L814.538 236.021L814.855 211.903Z" stroke="#2C2B2B" stroke-width="3" stroke-miterlimit="10"/>
<path d="M833.261 247.804L822.984 247.669L822.667 271.787L832.943 271.922L833.261 247.804Z" stroke="#2C2B2B" stroke-width="3" stroke-miterlimit="10"/>
<path d="M795.98 211.655L785.704 211.52L785.387 235.637L795.663 235.773L795.98 211.655Z" stroke="#2C2B2B" stroke-width="3" stroke-miterlimit="10"/>
<path d="M814.386 247.555L804.109 247.42L803.792 271.538L814.068 271.673L814.386 247.555Z" stroke="#2C2B2B" stroke-width="3" stroke-miterlimit="10"/>
<path d="M795.511 247.307L785.234 247.172L784.917 271.29L795.193 271.425L795.511 247.307Z" stroke="#2C2B2B" stroke-width="3" stroke-miterlimit="10"/>
<path d="M777.105 211.406L766.829 211.271L766.512 235.388L776.788 235.524L777.105 211.406Z" stroke="#2C2B2B" stroke-width="3" stroke-miterlimit="10"/>
<path d="M776.636 247.058L766.359 246.923L766.042 271.041L776.318 271.176L776.636 247.058Z" stroke="#2C2B2B" stroke-width="3" stroke-miterlimit="10"/>
<path d="M776.166 282.711L765.89 282.576L765.572 306.694L775.849 306.829L776.166 282.711Z" stroke="#2C2B2B" stroke-width="3" stroke-miterlimit="10"/>
<path d="M795.041 282.959L784.765 282.824L784.447 306.942L794.724 307.077L795.041 282.959Z" stroke="#2C2B2B" stroke-width="3" stroke-miterlimit="10"/>
<path d="M813.916 283.209L803.64 283.073L803.322 307.191L813.599 307.326L813.916 283.209Z" stroke="#2C2B2B" stroke-width="3" stroke-miterlimit="10"/>
<path d="M832.791 283.457L822.515 283.321L822.197 307.439L832.474 307.575L832.791 283.457Z" stroke="#2C2B2B" stroke-width="3" stroke-miterlimit="10"/>
<path d="M832.322 319.109L822.046 318.974L821.734 342.672L832.01 342.807L832.322 319.109Z" stroke="#2C2B2B" stroke-width="3" stroke-miterlimit="10"/>
<path d="M813.447 318.861L803.171 318.726L802.853 342.844L813.13 342.979L813.447 318.861Z" stroke="#2C2B2B" stroke-width="3" stroke-miterlimit="10"/>
<path d="M794.572 318.612L784.296 318.477L783.978 342.595L794.255 342.73L794.572 318.612Z" stroke="#2C2B2B" stroke-width="3" stroke-miterlimit="10"/>
<path d="M775.697 318.364L765.421 318.229L765.103 342.346L775.38 342.482L775.697 318.364Z" stroke="#2C2B2B" stroke-width="3" stroke-miterlimit="10"/>
<path d="M593.896 313.873L582.99 313.729L582.681 337.218L593.587 337.362L593.896 313.873Z" stroke="#2C2B2B" stroke-width="3" stroke-miterlimit="10"/>
<path d="M610.672 314.094L599.767 313.95L599.457 337.439L610.363 337.582L610.672 314.094Z" stroke="#2C2B2B" stroke-width="3" stroke-miterlimit="10"/>
<path d="M627.216 314.144L616.311 314L616.001 337.489L626.907 337.632L627.216 314.144Z" stroke="#2C2B2B" stroke-width="3" stroke-miterlimit="10"/>
<path d="M643.216 314.144L632.311 314L632.001 337.489L642.907 337.632L643.216 314.144Z" stroke="#2C2B2B" stroke-width="3" stroke-miterlimit="10"/>
<path d="M691.495 197.693L690.001 269.5L644.186 286.002L643.424 343.891" stroke="#2C2B2B" stroke-width="3" stroke-miterlimit="10"/>
<path d="M757.74 216.266L756.059 343.986" stroke="#2C2B2B" stroke-width="3" stroke-miterlimit="10"/>
<path d="M876.808 174.413L848.915 174.046C847.863 174.242 847.863 174.242 847.863 174.242" stroke="#2C2B2B" stroke-width="3" stroke-miterlimit="10"/>
<path d="M862.527 175.694L860.3 344.939" stroke="#2C2B2B" stroke-width="3" stroke-miterlimit="10"/>
<path d="M852.286 236.518L847.253 236.452L842.01 236.383L842.327 212.265L852.603 212.4L852.286 236.518Z" stroke="#2C2B2B" stroke-width="3" stroke-miterlimit="10"/>
<path d="M851.814 272.38L846.78 272.314L841.537 272.245L841.857 247.917L852.134 248.052L851.814 272.38Z" stroke="#2C2B2B" stroke-width="3" stroke-miterlimit="10"/>
<path d="M851.344 308.032L846.311 307.966L841.067 307.897L841.388 283.569L851.664 283.705L851.344 308.032Z" stroke="#2C2B2B" stroke-width="3" stroke-miterlimit="10"/>
<path d="M850.892 342.427L845.858 342.361L840.615 342.292L840.919 319.223L851.195 319.358L850.892 342.427Z" stroke="#2C2B2B" stroke-width="3" stroke-miterlimit="10"/>
<path d="M668.494 276.587L642.886 285.33L495.597 283.093L532.827 264.228L689.791 266.294L689.212 268.878L668.494 276.587Z" stroke="#2C2B2B" stroke-width="3" stroke-miterlimit="10" stroke-linejoin="bevel"/>
<path d="M491.501 284.5L491.122 345.114" stroke="#2C2B2B" stroke-width="3" stroke-miterlimit="10"/>
<path d="M577.117 313.652L566.212 313.509L565.903 336.998L576.808 337.141L577.117 313.652Z" stroke="#2C2B2B" stroke-width="3" stroke-miterlimit="10"/>
<path d="M560.34 313.432L549.435 313.288L549.125 336.777L560.031 336.92L560.34 313.432Z" stroke="#2C2B2B" stroke-width="3" stroke-miterlimit="10"/>
<path d="M543.563 313.211L532.657 313.067L532.348 336.556L543.254 336.7L543.563 313.211Z" stroke="#2C2B2B" stroke-width="3" stroke-miterlimit="10"/>
<path d="M526.784 312.989L515.879 312.846L515.57 336.334L526.475 336.478L526.784 312.989Z" stroke="#2C2B2B" stroke-width="3" stroke-miterlimit="10"/>
<path d="M509.216 312.425L498.311 312.281L498.001 335.77L508.907 335.914L509.216 312.425Z" stroke="#2C2B2B" stroke-width="3" stroke-miterlimit="10"/>
<path d="M688.937 343.999L689.97 265.506" stroke="#2C2B2B" stroke-width="3" stroke-miterlimit="10"/>
<path d="M77.1064 118.579L157.01 119.631" stroke="#2C2B2B" stroke-width="3" stroke-miterlimit="10"/>
<path d="M100.971 119.742L95.2975 332.762" stroke="#2C2B2B" stroke-width="3" stroke-miterlimit="10"/>
<path d="M138.181 131.759L116.789 131.478L116.59 146.578L137.982 146.859L138.181 131.759Z" stroke="#2C2B2B" stroke-width="3" stroke-miterlimit="10"/>
<path d="M79.9304 190.984L77.0295 331.693" stroke="#2C2B2B" stroke-width="3" stroke-miterlimit="10"/>
<path d="M290.338 93.6979L323.391 84.4842L321.017 344.552" stroke="#2C2B2B" stroke-width="3" stroke-miterlimit="10"/>
<path d="M362 85.027L324.001 84" stroke="#2C2B2B" stroke-width="3" stroke-miterlimit="10"/>
<path d="M146.63 207.86L312.479 163.362" stroke="#2C2B2B" stroke-width="3" stroke-miterlimit="10"/>
<path d="M145.137 261.366L312.342 234.01" stroke="#2C2B2B" stroke-width="3" stroke-miterlimit="10"/>
<path d="M144.267 315.18L311.657 298.06" stroke="#2C2B2B" stroke-width="3" stroke-miterlimit="10"/>
<line x1="490.228" y1="286.714" x2="500.228" y2="280.714" stroke="#2C2B2B" stroke-width="3"/>
</g>
<defs>
<clipPath id="clip0">
<rect width="947" height="352" fill="white"/>
</clipPath>
</defs>
</svg>
