<svg width="34" height="34" viewBox="0 0 34 34" fill="none" xmlns="http://www.w3.org/2000/svg">
<path d="M22 7H12C9.23858 7 7 9.23858 7 12V22C7 24.7614 9.23858 27 12 27H22C24.7614 27 27 24.7614 27 22V12C27 9.23858 24.7614 7 22 7Z" stroke="#FFFDF6" stroke-width="2" stroke-linecap="round" stroke-linejoin="round"/>
<path d="M20.9997 16.3698C21.1231 17.2021 20.981 18.052 20.5935 18.7988C20.206 19.5456 19.5929 20.1512 18.8413 20.5295C18.0898 20.9077 17.2382 21.0394 16.4075 20.9057C15.5768 20.7721 14.8095 20.3799 14.2145 19.785C13.6196 19.1901 13.2274 18.4227 13.0938 17.592C12.9601 16.7614 13.0918 15.9097 13.47 15.1582C13.8483 14.4067 14.4539 13.7936 15.2007 13.4061C15.9475 13.0186 16.7975 12.8764 17.6297 12.9998C18.4786 13.1257 19.2646 13.5213 19.8714 14.1281C20.4782 14.735 20.8738 15.5209 20.9997 16.3698Z" stroke="#FFFDF6" stroke-width="2" stroke-linecap="round" stroke-linejoin="round"/>
<path d="M22.5 11.5H22.51" stroke="#FFFDF6" stroke-width="2" stroke-linecap="round" stroke-linejoin="round"/>
</svg>
