<svg width="1178" height="766" viewBox="0 0 1178 766" fill="none" xmlns="http://www.w3.org/2000/svg">
<circle cx="974" cy="303" r="40" fill="#2C2B2B"/>
<circle cx="974" cy="460" r="40" fill="#2C2B2B"/>
<circle cx="94" cy="460" r="40" fill="#2C2B2B"/>
<path d="M957.264 324L957.264 279.2L962.256 279.2L962.256 319.264L970.704 319.264L970.704 279.2L975.696 279.2L975.696 319.264L984.144 319.264L984.144 279.2L989.136 279.2L989.136 324L957.264 324Z" fill="#FFFDF7"/>
<circle cx="314" cy="617" r="40" fill="#2C2B2B"/>
<circle cx="94" cy="147" r="40" fill="#2C2B2B"/>
<circle cx="204" cy="147" r="40" fill="#2C2B2B"/>
<circle cx="314" cy="147" r="40" fill="#2C2B2B"/>
<circle cx="424" cy="147" r="40" fill="#2C2B2B"/>
<circle cx="534" cy="148" r="40" fill="#2C2B2B"/>
<circle cx="644" cy="147" r="40" fill="#2C2B2B"/>
<circle cx="754" cy="147" r="40" fill="#2C2B2B"/>
<circle cx="864" cy="147" r="40" fill="#2C2B2B"/>
<circle cx="1084" cy="460" r="40" fill="#2C2B2B"/>
<circle cx="1084" cy="617" r="40" fill="#2C2B2B"/>
<circle cx="974" cy="617" r="40" fill="#2C2B2B"/>
<circle cx="94" cy="303" r="40" fill="#2C2B2B"/>
<circle cx="204" cy="303" r="40" fill="#2C2B2B"/>
<circle cx="314" cy="303" r="40" fill="#2C2B2B"/>
<circle cx="424" cy="303" r="40" fill="#2C2B2B"/>
<circle cx="534" cy="304" r="40" fill="#2C2B2B"/>
<circle cx="204" cy="460" r="40" fill="#2C2B2B"/>
<circle cx="314" cy="460" r="40" fill="#2C2B2B"/>
<circle cx="424" cy="460" r="40" fill="#2C2B2B"/>
<circle cx="534" cy="461" r="40" fill="#2C2B2B"/>
<circle cx="424" cy="617" r="40" fill="#2C2B2B"/>
<circle cx="534" cy="618" r="40" fill="#2C2B2B"/>
<circle cx="644" cy="303" r="40" fill="#2C2B2B"/>
<circle cx="754" cy="303" r="40" fill="#2C2B2B"/>
<circle cx="864" cy="303" r="40" fill="#2C2B2B"/>
<circle cx="644" cy="460" r="40" fill="#2C2B2B"/>
<circle cx="754" cy="460" r="40" fill="#2C2B2B"/>
<circle cx="864" cy="460" r="40" fill="#2C2B2B"/>
<circle cx="644" cy="617" r="40" fill="#2C2B2B"/>
<circle cx="754" cy="617" r="40" fill="#2C2B2B"/>
<circle cx="864" cy="617" r="40" fill="#2C2B2B"/>
<path d="M84.35 150.4H92.2V124.1L84.2 129.7L82.25 126.85L93.25 119H96.05V150.4H103.75V154H84.35V150.4Z" fill="#FFFDF7"/>
<path d="M103.248 294.304L103.632 287.904H103.248L99.536 295.072L82.896 324H77.84V279.2H83.152V309.28L82.832 315.616H83.216L86.864 308.448L103.504 279.2H108.56V324H103.248V294.304ZM88.272 268.32C88.4427 269.899 89.04 271.115 90.064 271.968C91.088 272.821 92.4533 273.248 94.16 273.248C95.8667 273.248 97.2107 272.821 98.192 271.968C99.216 271.115 99.8347 269.92 100.048 268.384L104.592 269.472C104.123 271.776 103.035 273.611 101.328 274.976C99.664 276.299 97.2533 276.96 94.096 276.96C91.0667 276.96 88.5707 276.384 86.608 275.232C84.688 274.037 83.5573 272.16 83.216 269.6L88.272 268.32Z" fill="#FFFDF7"/>
<path d="M90.512 476.84C88.6347 476.84 86.7787 476.605 84.944 476.136C83.152 475.667 81.552 474.792 80.144 473.512C78.736 472.189 77.584 470.333 76.688 467.944C75.8347 465.555 75.408 462.44 75.408 458.6C75.408 455.144 75.8133 452.2 76.624 449.768C77.4347 447.336 78.5227 445.373 79.888 443.88C81.2533 442.344 82.8533 441.235 84.688 440.552C86.5227 439.869 88.464 439.528 90.512 439.528V434.92H95.824V439.528C97.6587 439.528 99.472 439.805 101.264 440.36C103.056 440.872 104.677 441.832 106.128 443.24C107.579 444.605 108.752 446.483 109.648 448.872C110.544 451.219 110.992 454.248 110.992 457.96C110.992 461.587 110.544 464.616 109.648 467.048C108.795 469.48 107.643 471.421 106.192 472.872C104.784 474.323 103.163 475.347 101.328 475.944C99.536 476.541 97.7013 476.84 95.824 476.84V482.28H90.512V476.84ZM105.68 457.96C105.68 455.485 105.445 453.373 104.976 451.624C104.507 449.832 103.824 448.381 102.928 447.272C102.075 446.163 101.029 445.352 99.792 444.84C98.5547 444.285 97.168 444.008 95.632 444.008V472.424C97.168 472.424 98.5547 472.211 99.792 471.784C101.072 471.315 102.139 470.525 102.992 469.416C103.845 468.307 104.507 466.835 104.976 465C105.445 463.123 105.68 460.776 105.68 457.96ZM80.72 458.6C80.72 461.16 80.912 463.315 81.296 465.064C81.7227 466.813 82.3413 468.243 83.152 469.352C83.9627 470.419 84.9867 471.208 86.224 471.72C87.504 472.189 88.976 472.424 90.64 472.424V444.008C89.1893 444.008 87.8453 444.243 86.608 444.712C85.4133 445.139 84.368 445.928 83.472 447.08C82.6187 448.189 81.936 449.683 81.424 451.56C80.9547 453.437 80.72 455.784 80.72 458.6Z" fill="#FFFDF7"/>
<path d="M213.888 436.2H219.2V481H213.888V436.2ZM187.2 436.2H192.512V453.032C192.811 452.947 193.344 452.84 194.112 452.712C194.88 452.541 195.755 452.456 196.736 452.456C198.315 452.456 199.872 452.669 201.408 453.096C202.944 453.523 204.331 454.269 205.568 455.336C206.805 456.403 207.808 457.853 208.576 459.688C209.344 461.48 209.728 463.741 209.728 466.472C209.728 469.117 209.387 471.379 208.704 473.256C208.021 475.133 207.061 476.691 205.824 477.928C204.587 479.165 203.093 480.083 201.344 480.68C199.595 481.235 197.675 481.512 195.584 481.512C195.029 481.512 194.389 481.491 193.664 481.448C192.939 481.448 192.192 481.405 191.424 481.32C190.656 481.277 189.888 481.192 189.12 481.064C188.395 480.979 187.755 480.851 187.2 480.68V436.2ZM195.968 476.776C197.205 476.776 198.336 476.605 199.36 476.264C200.427 475.88 201.323 475.304 202.048 474.536C202.816 473.725 203.392 472.701 203.776 471.464C204.203 470.227 204.416 468.712 204.416 466.92C204.416 465 204.181 463.421 203.712 462.184C203.285 460.904 202.688 459.901 201.92 459.176C201.195 458.408 200.32 457.896 199.296 457.64C198.315 457.341 197.269 457.192 196.16 457.192C195.435 457.192 194.709 457.256 193.984 457.384C193.259 457.469 192.768 457.597 192.512 457.768V476.328C192.853 476.499 193.344 476.627 193.984 476.712C194.624 476.755 195.285 476.776 195.968 476.776Z" fill="#FFFDF7"/>
<path d="M327.408 446.44C327.408 447.507 327.237 448.595 326.896 449.704C326.555 450.813 326.043 451.859 325.36 452.84C324.677 453.779 323.803 454.611 322.736 455.336C321.669 456.061 320.411 456.616 318.96 457V457.256C320.24 457.469 321.456 457.832 322.608 458.344C323.803 458.856 324.848 459.56 325.744 460.456C326.64 461.352 327.365 462.44 327.92 463.72C328.475 465 328.752 466.515 328.752 468.264C328.752 470.568 328.261 472.573 327.28 474.28C326.341 475.944 325.083 477.309 323.504 478.376C321.968 479.443 320.197 480.232 318.192 480.744C316.187 481.256 314.139 481.512 312.048 481.512C311.323 481.512 310.469 481.512 309.488 481.512C308.507 481.512 307.483 481.469 306.416 481.384C305.349 481.341 304.283 481.256 303.216 481.128C302.149 481.043 301.211 480.893 300.4 480.68V436.584C301.979 436.328 303.813 436.115 305.904 435.944C307.995 435.773 310.277 435.688 312.752 435.688C314.416 435.688 316.101 435.837 317.808 436.136C319.557 436.392 321.136 436.925 322.544 437.736C323.952 438.504 325.104 439.592 326 441C326.939 442.408 327.408 444.221 327.408 446.44ZM312.56 476.904C313.925 476.904 315.248 476.733 316.528 476.392C317.808 476.051 318.939 475.539 319.92 474.856C320.901 474.173 321.669 473.32 322.224 472.296C322.821 471.272 323.12 470.056 323.12 468.648C323.12 466.899 322.757 465.491 322.032 464.424C321.349 463.357 320.432 462.525 319.28 461.928C318.171 461.331 316.912 460.925 315.504 460.712C314.096 460.499 312.688 460.392 311.28 460.392H305.712V476.456C306.011 476.541 306.437 476.605 306.992 476.648C307.547 476.691 308.144 476.733 308.784 476.776C309.424 476.819 310.085 476.861 310.768 476.904C311.451 476.904 312.048 476.904 312.56 476.904ZM309.04 455.912C309.765 455.912 310.64 455.891 311.664 455.848C312.688 455.805 313.541 455.741 314.224 455.656C315.248 455.315 316.208 454.909 317.104 454.44C318 453.928 318.789 453.331 319.472 452.648C320.197 451.965 320.752 451.197 321.136 450.344C321.563 449.491 321.776 448.552 321.776 447.528C321.776 446.12 321.499 444.947 320.944 444.008C320.432 443.069 319.728 442.323 318.832 441.768C317.936 441.213 316.912 440.829 315.76 440.616C314.608 440.403 313.435 440.296 312.24 440.296C310.832 440.296 309.531 440.339 308.336 440.424C307.184 440.467 306.309 440.552 305.712 440.68V455.912H309.04Z" fill="#FFFDF7"/>
<path d="M323.312 598.064C322.587 597.765 321.776 597.552 320.88 597.424C320.027 597.253 318.981 597.168 317.744 597.168C315.995 597.168 314.267 597.488 312.56 598.128C310.896 598.768 309.403 599.813 308.08 601.264C306.8 602.715 305.755 604.613 304.944 606.96C304.176 609.307 303.792 612.187 303.792 615.6C303.792 618.672 304.133 621.36 304.816 623.664C305.541 625.968 306.523 627.888 307.76 629.424C309.04 630.96 310.555 632.112 312.304 632.88C314.096 633.648 316.08 634.032 318.256 634.032C319.365 634.032 320.389 633.947 321.328 633.776C322.309 633.563 323.205 633.285 324.016 632.944V626.544H328.752V635.184L328.816 635.312C327.536 636.293 325.915 637.125 323.952 637.808C321.989 638.448 319.6 638.768 316.784 638.768C314.096 638.768 311.6 638.32 309.296 637.424C307.035 636.485 305.072 635.077 303.408 633.2C301.744 631.323 300.443 628.933 299.504 626.032C298.608 623.088 298.16 619.611 298.16 615.6C298.16 611.419 298.672 607.877 299.696 604.976C300.72 602.032 302.107 599.643 303.856 597.808C305.605 595.931 307.632 594.565 309.936 593.712C312.283 592.859 314.779 592.432 317.424 592.432C318.875 592.432 320.133 592.496 321.2 592.624C322.267 592.709 323.205 592.859 324.016 593.072C324.827 593.243 325.531 593.477 326.128 593.776C326.768 594.075 327.387 594.416 327.984 594.8H328.048V604.912H323.312V598.064Z" fill="#FFFDF7"/>
<path d="M433.248 608.24L433.888 602.16H433.568L430.496 607.664L423.968 618.608H422.368L415.52 607.6L412.576 602.16H412.256L413.024 608.176V638H407.84V593.2H412.768L423.392 610.224H423.52L433.76 593.2H438.56V638H433.248V608.24Z" fill="#FFFDF7"/>
<path d="M543.248 608.304L543.632 601.904H543.248L539.536 609.072L522.896 638H517.84V593.2H523.152V623.28L522.832 629.616H523.216L526.864 622.448L543.504 593.2H548.56V638H543.248V608.304Z" fill="#FFFDF7"/>
<path d="M626.56 593.2H659.84V604.912H655.104V597.936H645.824V633.264H652.864V638H633.472V633.264H640.512V597.936H631.296V604.912H626.56V593.2Z" fill="#FFFDF7"/>
<path d="M741.552 593.2H746.864V610.608C747.077 610.565 747.44 610.523 747.952 610.48C748.464 610.395 749.019 610.331 749.616 610.288C750.213 610.245 750.832 610.203 751.472 610.16C752.112 610.117 752.688 610.096 753.2 610.096C755.248 610.096 757.232 610.309 759.152 610.736C761.115 611.12 762.843 611.824 764.336 612.848C765.872 613.872 767.109 615.259 768.048 617.008C768.987 618.715 769.456 620.891 769.456 623.536C769.456 626.096 769.008 628.315 768.112 630.192C767.216 632.069 765.979 633.627 764.4 634.864C762.821 636.101 760.965 637.019 758.832 637.616C756.741 638.213 754.459 638.512 751.984 638.512C751.387 638.512 750.661 638.491 749.808 638.448C748.955 638.448 748.037 638.405 747.056 638.32C746.117 638.277 745.157 638.192 744.176 638.064C743.237 637.936 742.363 637.765 741.552 637.552V593.2ZM752.688 633.904C754.224 633.904 755.653 633.712 756.976 633.328C758.341 632.901 759.536 632.283 760.56 631.472C761.584 630.619 762.373 629.573 762.928 628.336C763.525 627.056 763.824 625.584 763.824 623.92C763.824 622.128 763.504 620.635 762.864 619.44C762.224 618.245 761.371 617.307 760.304 616.624C759.28 615.899 758.085 615.408 756.72 615.152C755.355 614.853 753.947 614.704 752.496 614.704C752.112 614.704 751.643 614.725 751.088 614.768C750.533 614.811 749.979 614.853 749.424 614.896C748.869 614.939 748.357 615.003 747.888 615.088C747.419 615.173 747.077 615.237 746.864 615.28V633.52C747.461 633.648 748.315 633.755 749.424 633.84C750.533 633.883 751.621 633.904 752.688 633.904Z" fill="#FFFDF7"/>
<path d="M850.912 593.2H875.232V597.936H856.224V611.376C856.949 611.248 857.845 611.12 858.912 610.992C859.979 610.864 861.003 610.8 861.984 610.8C864.16 610.8 866.229 611.013 868.192 611.44C870.155 611.824 871.883 612.507 873.376 613.488C874.869 614.469 876.043 615.813 876.896 617.52C877.792 619.184 878.24 621.296 878.24 623.856C878.24 626.416 877.792 628.635 876.896 630.512C876 632.347 874.805 633.861 873.312 635.056C871.819 636.208 870.069 637.083 868.064 637.68C866.101 638.235 864.032 638.512 861.856 638.512C861.131 638.512 860.299 638.491 859.36 638.448C858.464 638.448 857.504 638.405 856.48 638.32C855.499 638.235 854.517 638.128 853.536 638C852.597 637.915 851.723 637.765 850.912 637.552V593.2ZM862.496 633.904C863.861 633.904 865.163 633.733 866.4 633.392C867.637 633.008 868.704 632.432 869.6 631.664C870.539 630.896 871.264 629.936 871.776 628.784C872.331 627.632 872.608 626.288 872.608 624.752C872.608 622.789 872.288 621.189 871.648 619.952C871.051 618.715 870.24 617.776 869.216 617.136C868.192 616.453 866.997 616.005 865.632 615.792C864.309 615.536 862.923 615.408 861.472 615.408C861.088 615.408 860.64 615.429 860.128 615.472C859.616 615.515 859.104 615.557 858.592 615.6C858.08 615.643 857.611 615.707 857.184 615.792C856.757 615.835 856.437 615.877 856.224 615.92V633.52C856.523 633.605 856.907 633.669 857.376 633.712C857.888 633.755 858.421 633.797 858.976 633.84C859.573 633.883 860.171 633.904 860.768 633.904C861.365 633.904 861.941 633.904 862.496 633.904Z" fill="#FFFDF7"/>
<path d="M961.552 612.72H966.864C966.949 609.733 967.227 607.003 967.696 604.528C968.208 602.053 968.933 599.92 969.872 598.128C970.853 596.336 972.091 594.949 973.584 593.968C975.077 592.944 976.848 592.432 978.896 592.432C981.072 592.432 982.907 592.965 984.4 594.032C985.936 595.099 987.173 596.635 988.112 598.64C989.093 600.645 989.797 603.077 990.224 605.936C990.651 608.795 990.864 612.016 990.864 615.6C990.864 623.237 989.84 629.019 987.792 632.944C985.787 636.827 982.608 638.768 978.256 638.768C976.251 638.768 974.544 638.277 973.136 637.296C971.728 636.315 970.555 634.907 969.616 633.072C968.677 631.195 967.973 628.955 967.504 626.352C967.077 623.707 966.843 620.72 966.8 617.392H961.552V638H956.24V593.2H961.552V612.72ZM972.176 615.6C972.176 621.573 972.752 626.139 973.904 629.296C975.056 632.453 976.656 634.032 978.704 634.032C981.221 634.032 982.992 632.581 984.016 629.68C985.04 626.779 985.552 622.085 985.552 615.6C985.552 613.04 985.445 610.651 985.232 608.432C985.061 606.171 984.72 604.208 984.208 602.544C983.696 600.88 982.971 599.579 982.032 598.64C981.136 597.659 979.963 597.168 978.512 597.168C977.317 597.168 976.315 597.595 975.504 598.448C974.693 599.301 974.032 600.517 973.52 602.096C973.051 603.675 972.709 605.616 972.496 607.92C972.283 610.181 972.176 612.741 972.176 615.6Z" fill="#FFFDF7"/>
<path d="M1090.79 584.08L1092.99 585.06L1080.22 613.9L1078.01 612.92L1090.79 584.08Z" fill="#FFFDF7"/>
<path d="M1084.21 645.42C1082.92 645.397 1081.78 645.28 1080.78 645.07C1079.8 644.883 1079 644.627 1078.4 644.3L1079.34 641.745C1079.81 642.025 1080.44 642.282 1081.23 642.515C1082.05 642.725 1083.04 642.853 1084.21 642.9V633.45C1083.51 633.1 1082.81 632.727 1082.11 632.33C1081.43 631.933 1080.82 631.467 1080.29 630.93C1079.75 630.37 1079.32 629.717 1078.99 628.97C1078.66 628.223 1078.5 627.337 1078.5 626.31C1078.5 624.63 1078.97 623.253 1079.9 622.18C1080.86 621.107 1082.29 620.442 1084.21 620.185V617H1086.59V620.08C1087.78 620.127 1088.74 620.243 1089.49 620.43C1090.26 620.593 1090.95 620.815 1091.56 621.095L1090.72 623.545C1090.25 623.312 1089.69 623.113 1089.04 622.95C1088.38 622.763 1087.57 622.647 1086.59 622.6V631.245C1087.31 631.618 1088.03 632.027 1088.76 632.47C1089.48 632.89 1090.12 633.38 1090.68 633.94C1091.26 634.5 1091.73 635.153 1092.08 635.9C1092.43 636.647 1092.61 637.522 1092.61 638.525C1092.61 640.345 1092.09 641.85 1091.07 643.04C1090.06 644.207 1088.57 644.953 1086.59 645.28V648.5H1084.21V645.42ZM1089.7 638.77C1089.7 638.21 1089.6 637.708 1089.39 637.265C1089.2 636.822 1088.94 636.425 1088.62 636.075C1088.29 635.725 1087.9 635.41 1087.46 635.13C1087.02 634.85 1086.54 634.582 1086.03 634.325V642.83C1087.1 642.643 1087.97 642.223 1088.65 641.57C1089.35 640.917 1089.7 639.983 1089.7 638.77ZM1081.41 626.135C1081.41 627.138 1081.72 627.955 1082.35 628.585C1083 629.215 1083.81 629.787 1084.77 630.3V622.635C1083.53 622.775 1082.65 623.183 1082.14 623.86C1081.65 624.537 1081.41 625.295 1081.41 626.135Z" fill="#FFFDF7"/>
<path d="M431.584 468.584H414.368L410.272 481H405.024L420 436.2H426.272L441.376 481H435.808L431.584 468.584ZM416.032 463.976H430.112L423.52 442.92H422.752L416.032 463.976Z" fill="#FFFDF7"/>
<path d="M542.608 440.936H523.792V481H518.48V436.2H547.92V481H542.608V440.936Z" fill="#FFFDF7"/>
<path d="M630.4 436.648C632.021 436.264 633.771 436.008 635.648 435.88C637.525 435.752 639.381 435.688 641.216 435.688C643.179 435.688 645.163 435.88 647.168 436.264C649.216 436.648 651.072 437.352 652.736 438.376C654.4 439.4 655.744 440.808 656.768 442.6C657.835 444.392 658.368 446.675 658.368 449.448C658.368 452.179 657.877 454.483 656.896 456.36C655.915 458.237 654.613 459.773 652.992 460.968C651.371 462.12 649.515 462.952 647.424 463.464C645.333 463.976 643.179 464.232 640.96 464.232C640.747 464.232 640.384 464.232 639.872 464.232C639.403 464.232 638.891 464.232 638.336 464.232C637.824 464.189 637.312 464.147 636.8 464.104C636.288 464.061 635.925 464.019 635.712 463.976V481H630.4V436.648ZM641.344 440.296C640.235 440.296 639.168 440.317 638.144 440.36C637.12 440.403 636.309 440.509 635.712 440.68V459.24C635.925 459.325 636.267 459.389 636.736 459.432C637.205 459.432 637.696 459.453 638.208 459.496C638.72 459.496 639.211 459.496 639.68 459.496C640.149 459.496 640.491 459.496 640.704 459.496C642.155 459.496 643.584 459.368 644.992 459.112C646.443 458.813 647.744 458.301 648.896 457.576C650.048 456.851 650.965 455.827 651.648 454.504C652.373 453.181 652.736 451.496 652.736 449.448C652.736 447.699 652.395 446.248 651.712 445.096C651.072 443.901 650.197 442.963 649.088 442.28C648.021 441.555 646.805 441.043 645.44 440.744C644.075 440.445 642.709 440.296 641.344 440.296Z" fill="#FFFDF7"/>
<path d="M737.072 458.6C737.072 451.176 738.373 445.459 740.976 441.448C743.621 437.437 747.675 435.432 753.136 435.432C756.123 435.432 758.64 435.987 760.688 437.096C762.779 438.205 764.464 439.784 765.744 441.832C767.024 443.837 767.941 446.269 768.496 449.128C769.051 451.944 769.328 455.101 769.328 458.6C769.328 466.024 768.005 471.741 765.36 475.752C762.757 479.763 758.683 481.768 753.136 481.768C750.192 481.768 747.696 481.213 745.648 480.104C743.6 478.995 741.936 477.437 740.656 475.432C739.376 473.384 738.459 470.952 737.904 468.136C737.349 465.277 737.072 462.099 737.072 458.6ZM742.704 458.6C742.704 461.075 742.853 463.421 743.152 465.64C743.493 467.859 744.069 469.821 744.88 471.528C745.691 473.192 746.757 474.536 748.08 475.56C749.403 476.541 751.088 477.032 753.136 477.032C756.805 477.032 759.472 475.539 761.136 472.552C762.843 469.565 763.696 464.915 763.696 458.6C763.696 456.168 763.525 453.843 763.184 451.624C762.885 449.363 762.331 447.4 761.52 445.736C760.709 444.029 759.621 442.685 758.256 441.704C756.891 440.68 755.184 440.168 753.136 440.168C749.509 440.168 746.864 441.683 745.2 444.712C743.536 447.699 742.704 452.328 742.704 458.6Z" fill="#FFFDF7"/>
<path d="M872.224 440.936H860.128C859.701 449.469 859.125 456.573 858.4 462.248C857.717 467.88 856.672 472.275 855.264 475.432C854.325 477.48 853.216 478.973 851.936 479.912C850.656 480.851 849.269 481.32 847.776 481.32C847.008 481.32 846.347 481.256 845.792 481.128C845.237 481.043 844.704 480.893 844.192 480.68L844.896 476.072C845.323 476.2 845.771 476.264 846.24 476.264C846.965 476.264 847.669 476.029 848.352 475.56C849.077 475.091 849.781 474.216 850.464 472.936C851.061 471.784 851.616 470.248 852.128 468.328C852.683 466.408 853.152 463.976 853.536 461.032C853.963 458.088 854.304 454.589 854.56 450.536C854.816 446.44 855.008 441.661 855.136 436.2H877.536V481H872.224V440.936Z" fill="#FFFDF7"/>
<path d="M991.376 490.024H986.896V481H958.992V490.024H954.512V476.264H958.8C958.971 475.752 959.355 474.621 959.952 472.872C960.592 471.123 961.232 468.648 961.872 465.448C962.555 462.248 963.173 458.237 963.728 453.416C964.283 448.595 964.56 442.856 964.56 436.2H986.576V476.264H991.376V490.024ZM981.264 476.264V440.936H969.552C969.424 445.629 969.147 449.853 968.72 453.608C968.336 457.363 967.888 460.691 967.376 463.592C966.864 466.493 966.331 468.989 965.776 471.08C965.264 473.171 964.816 474.899 964.432 476.264H981.264Z" fill="#FFFDF7"/>
<path d="M1081.58 436.2H1086.7V456.296H1089.9L1096.94 436.2H1102.18L1094.44 458.088L1103.4 481H1097.51L1090.02 460.264H1086.7V481H1081.58V460.264H1078.06L1070.5 481H1065L1073.38 458.408L1066.15 436.2H1071.72L1077.8 456.296H1081.58V436.2Z" fill="#FFFDF7"/>
<path d="M222.016 334.024H217.536V325H188.48V280.2H193.792V320.264H211.392V280.2H216.704V320.264H222.016V334.024Z" fill="#FFFDF7"/>
<path d="M313.136 306.824H317.232L325.04 280.2H330.48L321.392 309.32C320.539 312.264 319.685 314.76 318.832 316.808C318.021 318.856 317.125 320.52 316.144 321.8C315.205 323.037 314.16 323.933 313.008 324.488C311.856 325.043 310.533 325.32 309.04 325.32C307.632 325.32 306.501 325.213 305.648 325C304.837 324.744 304.069 324.381 303.344 323.912L304.944 319.496C305.797 319.965 306.587 320.264 307.312 320.392C308.037 320.52 308.699 320.584 309.296 320.584C310.491 320.584 311.643 319.88 312.752 318.472C313.861 317.064 314.779 314.76 315.504 311.56L309.744 311.496L295.92 280.2H302.064L313.136 306.824Z" fill="#FFFDF7"/>
<path d="M419.68 304.264H414.752V325H409.44V280.2H414.752V300.168H419.552L433.952 280.2H440.096L424.288 301.512L442.08 325H435.36L419.68 304.264Z" fill="#FFFDF7"/>
<path d="M520.848 280.2H547.152V284.936H526.16V299.592H545.552V304.328H526.16V320.264H547.472V325H520.848V280.2Z" fill="#FFFDF7"/>
<path d="M653.248 303.456H633.152V324H627.84V279.2H633.152V298.72H653.248V279.2H658.56V324H653.248V303.456Z" fill="#FFFDF7"/>
<path d="M738.48 279.2H769.2V290.912H764.464V283.936H749.936V319.264H759.984V324H738.48V319.264H744.624V283.936H738.48V279.2Z" fill="#FFFDF7"/>
<path d="M847.264 324V279.2H852.256V319.264H860.704V279.2H865.696V319.264H874.144V279.2H879.136V324H847.264Z" fill="#FFFDF7"/>
<path d="M88.24 171.41C88.24 171.11 88.28 170.78 88.36 170.42C88.46 170.06 88.61 169.7 88.81 169.34C89.03 168.98 89.31 168.63 89.65 168.29C89.99 167.95 90.42 167.65 90.94 167.39C90.54 167.11 90.17 166.75 89.83 166.31C89.51 165.87 89.35 165.24 89.35 164.42C89.35 163.3 89.76 162.39 90.58 161.69C91.42 160.99 92.58 160.64 94.06 160.64C95.14 160.64 96.05 160.73 96.79 160.91C97.55 161.09 98.2 161.31 98.74 161.57L98.17 163.58C97.69 163.36 97.12 163.17 96.46 163.01C95.8 162.83 95.11 162.74 94.39 162.74C93.49 162.74 92.82 162.9 92.38 163.22C91.96 163.54 91.75 163.97 91.75 164.51C91.75 165.03 91.94 165.44 92.32 165.74C92.72 166.02 93.22 166.27 93.82 166.49C94.42 166.71 95.06 166.93 95.74 167.15C96.42 167.37 97.06 167.66 97.66 168.02C98.26 168.36 98.75 168.82 99.13 169.4C99.53 169.96 99.73 170.69 99.73 171.59C99.73 172.21 99.55 172.89 99.19 173.63C98.83 174.35 98.11 175.01 97.03 175.61C97.57 175.93 97.97 176.3 98.23 176.72C98.49 177.14 98.62 177.76 98.62 178.58C98.62 179.2 98.5 179.75 98.26 180.23C98.02 180.69 97.68 181.08 97.24 181.4C96.82 181.72 96.32 181.96 95.74 182.12C95.16 182.28 94.54 182.36 93.88 182.36C92.76 182.36 91.84 182.26 91.12 182.06C90.4 181.88 89.76 181.65 89.2 181.37L89.8 179.42C90.26 179.64 90.81 179.84 91.45 180.02C92.11 180.18 92.82 180.26 93.58 180.26C94.42 180.26 95.07 180.13 95.53 179.87C95.99 179.59 96.22 179.13 96.22 178.49C96.22 177.97 96.02 177.56 95.62 177.26C95.24 176.96 94.75 176.7 94.15 176.48C93.55 176.26 92.91 176.04 92.23 175.82C91.55 175.6 90.91 175.32 90.31 174.98C89.71 174.62 89.21 174.16 88.81 173.6C88.43 173.04 88.24 172.31 88.24 171.41ZM97.33 171.65C97.33 171.15 97.2 170.74 96.94 170.42C96.68 170.1 96.33 169.83 95.89 169.61C95.47 169.37 94.99 169.17 94.45 169.01C93.91 168.83 93.37 168.64 92.83 168.44C92.25 168.7 91.74 169.07 91.3 169.55C90.86 170.03 90.64 170.63 90.64 171.35C90.64 171.85 90.77 172.26 91.03 172.58C91.29 172.9 91.62 173.18 92.02 173.42C92.44 173.64 92.91 173.83 93.43 173.99C93.97 174.15 94.51 174.33 95.05 174.53C95.33 174.41 95.6 174.25 95.86 174.05C96.14 173.85 96.39 173.63 96.61 173.39C96.83 173.13 97 172.86 97.12 172.58C97.26 172.28 97.33 171.97 97.33 171.65Z" fill="#FFFDF6"/>
<path d="M531.8 150.1C533.067 150.1 534.233 149.95 535.3 149.65C536.367 149.317 537.267 148.833 538 148.2C538.767 147.533 539.35 146.717 539.75 145.75C540.183 144.783 540.4 143.65 540.4 142.35C540.4 139.95 539.533 138.133 537.8 136.9C536.1 135.633 533.767 135 530.8 135L526.1 135.25V118H543.25V121.6H529.85V131.75L532.35 131.65C536.05 131.65 538.967 132.55 541.1 134.35C543.233 136.15 544.3 138.717 544.3 142.05C544.3 143.917 543.967 145.567 543.3 147C542.667 148.433 541.783 149.65 540.65 150.65C539.517 151.617 538.167 152.35 536.6 152.85C535.067 153.35 533.383 153.6 531.55 153.6C530.55 153.6 529.6 153.517 528.7 153.35C527.8 153.217 526.983 153.05 526.25 152.85C525.517 152.617 524.867 152.383 524.3 152.15C523.767 151.883 523.383 151.65 523.15 151.45L524.75 148.2C525.317 148.533 526.183 148.933 527.35 149.4C528.517 149.867 530 150.1 531.8 150.1Z" fill="#FFFDF7"/>
<path d="M526.84 164.74C526.84 163.8 526.95 163.01 527.17 162.37C527.41 161.71 527.71 161.18 528.07 160.78C528.43 160.38 528.84 160.09 529.3 159.91C529.76 159.73 530.22 159.64 530.68 159.64C531.14 159.64 531.6 159.72 532.06 159.88C532.52 160.04 532.93 160.32 533.29 160.72C533.65 161.1 533.94 161.62 534.16 162.28C534.4 162.92 534.52 163.74 534.52 164.74C534.52 165.72 534.4 166.54 534.16 167.2C533.94 167.84 533.65 168.36 533.29 168.76C532.93 169.14 532.52 169.41 532.06 169.57C531.6 169.73 531.14 169.81 530.68 169.81C530.22 169.81 529.76 169.73 529.3 169.57C528.84 169.41 528.43 169.14 528.07 168.76C527.71 168.36 527.41 167.84 527.17 167.2C526.95 166.54 526.84 165.72 526.84 164.74ZM528.94 164.74C528.94 165.92 529.12 166.75 529.48 167.23C529.86 167.69 530.26 167.92 530.68 167.92C530.9 167.92 531.11 167.88 531.31 167.8C531.53 167.7 531.72 167.53 531.88 167.29C532.04 167.05 532.17 166.73 532.27 166.33C532.37 165.91 532.42 165.38 532.42 164.74C532.42 164.12 532.37 163.61 532.27 163.21C532.17 162.79 532.04 162.46 531.88 162.22C531.72 161.96 531.53 161.78 531.31 161.68C531.11 161.58 530.9 161.53 530.68 161.53C530.22 161.53 529.81 161.77 529.45 162.25C529.11 162.71 528.94 163.54 528.94 164.74ZM535.45 175.93C535.45 174.99 535.56 174.2 535.78 173.56C536.02 172.9 536.32 172.37 536.68 171.97C537.04 171.57 537.45 171.28 537.91 171.1C538.37 170.92 538.83 170.83 539.29 170.83C539.75 170.83 540.21 170.91 540.67 171.07C541.13 171.23 541.54 171.51 541.9 171.91C542.26 172.29 542.55 172.81 542.77 173.47C543.01 174.11 543.13 174.93 543.13 175.93C543.13 176.91 543.01 177.73 542.77 178.39C542.55 179.03 542.26 179.55 541.9 179.95C541.54 180.33 541.13 180.6 540.67 180.76C540.21 180.92 539.75 181 539.29 181C538.83 181 538.37 180.92 537.91 180.76C537.45 180.6 537.04 180.33 536.68 179.95C536.32 179.55 536.02 179.03 535.78 178.39C535.56 177.73 535.45 176.91 535.45 175.93ZM537.55 175.93C537.55 177.11 537.73 177.94 538.09 178.42C538.47 178.88 538.87 179.11 539.29 179.11C539.51 179.11 539.72 179.07 539.92 178.99C540.14 178.91 540.33 178.76 540.49 178.54C540.65 178.3 540.78 177.97 540.88 177.55C540.98 177.13 541.03 176.59 541.03 175.93C541.03 175.31 540.98 174.8 540.88 174.4C540.78 173.98 540.65 173.65 540.49 173.41C540.33 173.15 540.14 172.97 539.92 172.87C539.72 172.77 539.51 172.72 539.29 172.72C539.07 172.72 538.85 172.77 538.63 172.87C538.43 172.97 538.25 173.14 538.09 173.38C537.93 173.62 537.8 173.95 537.7 174.37C537.6 174.77 537.55 175.29 537.55 175.93ZM539.26 159.46L540.97 160.33L530.53 181.42L528.82 180.64L539.26 159.46Z" fill="#FFFDF6"/>
<path d="M745.2 154L760.5 122.6H742.45V119H764.55V122.25L749.3 154H745.2Z" fill="#FFFDF7"/>
<path d="M751.99 175.35C751.99 174.71 752.17 174.22 752.53 173.88C752.89 173.52 753.37 173.34 753.97 173.34C754.61 173.34 755.11 173.52 755.47 173.88C755.83 174.22 756.01 174.71 756.01 175.35C756.01 175.93 755.83 176.41 755.47 176.79C755.11 177.17 754.61 177.36 753.97 177.36C753.37 177.36 752.89 177.17 752.53 176.79C752.17 176.41 751.99 175.93 751.99 175.35Z" fill="#FFFDF6"/>
<path d="M655.95 143.45C655.95 144.883 655.683 146.267 655.15 147.6C654.65 148.933 653.9 150.117 652.9 151.15C651.9 152.183 650.667 153.017 649.2 153.65C647.733 154.283 646.033 154.6 644.1 154.6C642.3 154.6 640.667 154.317 639.2 153.75C637.733 153.183 636.467 152.383 635.4 151.35C634.333 150.283 633.5 148.983 632.9 147.45C632.333 145.917 632.05 144.2 632.05 142.3C632.05 139.167 632.5 136.2 633.4 133.4C634.333 130.6 635.617 128.133 637.25 126C638.917 123.867 640.883 122.133 643.15 120.8C645.45 119.467 647.967 118.667 650.7 118.4L651.4 121.6C649.3 121.867 647.367 122.483 645.6 123.45C643.867 124.417 642.35 125.617 641.05 127.05C639.75 128.483 638.683 130.067 637.85 131.8C637.05 133.533 636.533 135.3 636.3 137.1C636.567 136.667 636.95 136.217 637.45 135.75C637.983 135.283 638.6 134.883 639.3 134.55C640.033 134.183 640.833 133.883 641.7 133.65C642.6 133.417 643.567 133.3 644.6 133.3C646.367 133.3 647.95 133.55 649.35 134.05C650.75 134.517 651.933 135.2 652.9 136.1C653.9 136.967 654.65 138.033 655.15 139.3C655.683 140.533 655.95 141.917 655.95 143.45ZM651.85 143.85C651.85 141.517 651.2 139.733 649.9 138.5C648.6 137.267 646.6 136.65 643.9 136.65C642.933 136.65 642.033 136.767 641.2 137C640.367 137.233 639.617 137.55 638.95 137.95C638.283 138.317 637.7 138.75 637.2 139.25C636.7 139.75 636.317 140.25 636.05 140.75C635.983 141.217 635.95 141.583 635.95 141.85C635.95 142.117 635.95 142.433 635.95 142.8C635.95 143.8 636.117 144.817 636.45 145.85C636.783 146.85 637.283 147.75 637.95 148.55C638.65 149.35 639.517 150 640.55 150.5C641.583 151 642.8 151.25 644.2 151.25C645.333 151.25 646.367 151.05 647.3 150.65C648.233 150.25 649.033 149.717 649.7 149.05C650.4 148.383 650.933 147.6 651.3 146.7C651.667 145.8 651.85 144.85 651.85 143.85Z" fill="#FFFDF7"/>
<path d="M642.99 167.56C642.99 166.92 643.17 166.43 643.53 166.09C643.89 165.73 644.37 165.55 644.97 165.55C645.61 165.55 646.11 165.73 646.47 166.09C646.83 166.43 647.01 166.92 647.01 167.56C647.01 168.14 646.83 168.62 646.47 169C646.11 169.38 645.61 169.57 644.97 169.57C644.37 169.57 643.89 169.38 643.53 169C643.17 168.62 642.99 168.14 642.99 167.56ZM642.99 179.35C642.99 178.71 643.17 178.22 643.53 177.88C643.89 177.52 644.37 177.34 644.97 177.34C645.61 177.34 646.11 177.52 646.47 177.88C646.83 178.22 647.01 178.71 647.01 179.35C647.01 179.93 646.83 180.41 646.47 180.79C646.11 181.17 645.61 181.36 644.97 181.36C644.37 181.36 643.89 181.17 643.53 180.79C643.17 180.41 642.99 179.93 642.99 179.35Z" fill="#FFFDF6"/>
<path d="M852.75 144.5C852.75 140.467 855.2 137.217 860.1 134.75C859.167 134.25 858.3 133.733 857.5 133.2C856.7 132.667 856 132.067 855.4 131.4C854.833 130.733 854.383 129.967 854.05 129.1C853.717 128.233 853.55 127.233 853.55 126.1C853.55 124.867 853.8 123.717 854.3 122.65C854.8 121.583 855.517 120.667 856.45 119.9C857.383 119.133 858.517 118.533 859.85 118.1C861.183 117.633 862.667 117.4 864.3 117.4C865.833 117.4 867.217 117.6 868.45 118C869.717 118.4 870.783 118.967 871.65 119.7C872.55 120.4 873.233 121.233 873.7 122.2C874.167 123.167 874.4 124.2 874.4 125.3C874.4 127.2 873.917 128.95 872.95 130.55C872.017 132.117 870.5 133.55 868.4 134.85C869.367 135.35 870.267 135.883 871.1 136.45C871.933 137.017 872.65 137.65 873.25 138.35C873.883 139.05 874.367 139.85 874.7 140.75C875.067 141.617 875.25 142.617 875.25 143.75C875.25 145.15 875 146.467 874.5 147.7C874 148.9 873.25 149.933 872.25 150.8C871.283 151.667 870.083 152.35 868.65 152.85C867.217 153.35 865.55 153.6 863.65 153.6C861.883 153.6 860.317 153.35 858.95 152.85C857.583 152.35 856.433 151.683 855.5 150.85C854.6 150.017 853.917 149.05 853.45 147.95C852.983 146.85 852.75 145.7 852.75 144.5ZM871.3 144C871.3 143.033 871.067 142.183 870.6 141.45C870.167 140.683 869.567 140 868.8 139.4C868.067 138.8 867.217 138.25 866.25 137.75C865.283 137.25 864.283 136.75 863.25 136.25C860.85 137.417 859.133 138.7 858.1 140.1C857.1 141.5 856.6 142.817 856.6 144.05C856.6 144.883 856.75 145.683 857.05 146.45C857.383 147.183 857.85 147.833 858.45 148.4C859.083 148.967 859.85 149.417 860.75 149.75C861.683 150.083 862.75 150.25 863.95 150.25C864.917 150.25 865.833 150.117 866.7 149.85C867.6 149.583 868.383 149.2 869.05 148.7C869.75 148.167 870.3 147.517 870.7 146.75C871.1 145.95 871.3 145.033 871.3 144ZM857.45 125.95C857.45 126.883 857.667 127.717 858.1 128.45C858.533 129.183 859.1 129.85 859.8 130.45C860.533 131.017 861.367 131.55 862.3 132.05C863.233 132.517 864.217 132.983 865.25 133.45C867.017 132.283 868.333 131.117 869.2 129.95C870.1 128.783 870.55 127.5 870.55 126.1C870.55 125.267 870.367 124.533 870 123.9C869.667 123.233 869.2 122.667 868.6 122.2C868.033 121.733 867.367 121.383 866.6 121.15C865.833 120.883 865.033 120.75 864.2 120.75C863.133 120.75 862.183 120.9 861.35 121.2C860.517 121.5 859.817 121.9 859.25 122.4C858.683 122.9 858.233 123.467 857.9 124.1C857.6 124.7 857.45 125.317 857.45 125.95Z" fill="#FFFDF7"/>
<path d="M862.87 175.35C862.87 174.75 863.06 174.27 863.44 173.91C863.84 173.53 864.35 173.34 864.97 173.34C865.73 173.34 866.32 173.61 866.74 174.15C867.16 174.67 867.37 175.41 867.37 176.37C867.37 177.15 867.24 177.83 866.98 178.41C866.72 179.01 866.39 179.51 865.99 179.91C865.61 180.33 865.19 180.66 864.73 180.9C864.29 181.16 863.88 181.35 863.5 181.47L862.75 180.3C863.47 180.02 864.09 179.62 864.61 179.1C865.13 178.58 865.39 177.95 865.39 177.21C865.11 177.27 864.89 177.3 864.73 177.3C864.15 177.3 863.69 177.14 863.35 176.82C863.03 176.48 862.87 175.99 862.87 175.35Z" fill="#FFFDF6"/>
<path d="M437 143.1H430.25V154H426.35V143.1H410.2V140.2L426.95 119H430.25V139.8H437V143.1ZM426.35 125.25L414.8 139.8H426.35V125.25Z" fill="#FFFDF7"/>
<path d="M417.96 168.63C417.96 168.09 418.14 167.66 418.5 167.34C418.86 167.02 419.3 166.86 419.82 166.86C420.52 166.86 421.08 167.07 421.5 167.49C421.92 167.91 422.13 168.54 422.13 169.38C422.13 170.18 422.01 170.88 421.77 171.48C421.55 172.06 421.27 172.55 420.93 172.95C420.61 173.35 420.27 173.67 419.91 173.91C419.55 174.13 419.23 174.29 418.95 174.39L418.05 173.16C418.61 172.88 419.09 172.52 419.49 172.08C419.91 171.64 420.12 171.08 420.12 170.4C420.04 170.42 419.92 170.43 419.76 170.43C419.3 170.43 418.88 170.26 418.5 169.92C418.14 169.58 417.96 169.15 417.96 168.63ZM423.96 168.63C423.96 168.09 424.14 167.66 424.5 167.34C424.86 167.02 425.3 166.86 425.82 166.86C426.52 166.86 427.08 167.07 427.5 167.49C427.92 167.91 428.13 168.54 428.13 169.38C428.13 170.18 428.01 170.88 427.77 171.48C427.55 172.06 427.27 172.55 426.93 172.95C426.61 173.35 426.27 173.67 425.91 173.91C425.55 174.13 425.23 174.29 424.95 174.39L424.05 173.16C424.61 172.88 425.09 172.52 425.49 172.08C425.91 171.64 426.12 171.08 426.12 170.4C426.04 170.42 425.92 170.43 425.76 170.43C425.3 170.43 424.88 170.26 424.5 169.92C424.14 169.58 423.96 169.15 423.96 168.63Z" fill="#FFFDF6"/>
<path d="M214 127.85C214 130.917 212.55 134.333 209.65 138.1C206.75 141.867 202.7 145.967 197.5 150.4H215.1V154H192.9V150.4C193.533 149.8 194.4 149.017 195.5 148.05C196.6 147.083 197.783 146.017 199.05 144.85C200.317 143.65 201.6 142.367 202.9 141C204.233 139.633 205.433 138.233 206.5 136.8C207.567 135.367 208.433 133.933 209.1 132.5C209.767 131.067 210.1 129.683 210.1 128.35C210.1 126.35 209.567 124.783 208.5 123.65C207.467 122.483 205.9 121.9 203.8 121.9C202 121.9 200.483 122.1 199.25 122.5C198.017 122.9 196.9 123.483 195.9 124.25L194.2 121.5C195.7 120.433 197.283 119.65 198.95 119.15C200.65 118.65 202.5 118.4 204.5 118.4C207.633 118.4 210 119.25 211.6 120.95C213.2 122.65 214 124.95 214 127.85Z" fill="#FFFDF7"/>
<path d="M199.87 172.25H210.13V174.47H199.87V172.25Z" fill="#FFFDF6"/>
<path d="M311.4 151.15C312.733 151.15 313.95 150.983 315.05 150.65C316.183 150.283 317.167 149.783 318 149.15C318.833 148.517 319.483 147.75 319.95 146.85C320.417 145.95 320.65 144.95 320.65 143.85C320.65 141.55 319.833 139.917 318.2 138.95C316.6 137.95 314.433 137.45 311.7 137.45H308.5V135.05L318.35 122.6H303.4V119H323.15V122.6L313.3 134.15H314.1C315.633 134.15 317.033 134.367 318.3 134.8C319.567 135.233 320.667 135.85 321.6 136.65C322.533 137.45 323.25 138.417 323.75 139.55C324.283 140.683 324.55 141.967 324.55 143.4C324.55 145.2 324.2 146.8 323.5 148.2C322.8 149.6 321.85 150.783 320.65 151.75C319.45 152.683 318.033 153.4 316.4 153.9C314.8 154.367 313.083 154.6 311.25 154.6C309.55 154.6 308.067 154.467 306.8 154.2C305.567 153.967 304.433 153.667 303.4 153.3L304.4 149.8C305.267 150.2 306.283 150.533 307.45 150.8C308.617 151.033 309.933 151.15 311.4 151.15Z" fill="#FFFDF7"/>
<path d="M316.73 173.01H322.58V175.17H316.73V173.01ZM307.34 168.75H307.22L307.37 171.99V183H305.12V162H306.8L312.77 176.1H312.92L312.74 172.71V162H314.99V183H313.34L307.34 168.75ZM316.07 166.74C316.07 165.8 316.16 165.01 316.34 164.37C316.54 163.71 316.8 163.18 317.12 162.78C317.46 162.38 317.84 162.09 318.26 161.91C318.7 161.73 319.15 161.64 319.61 161.64C320.07 161.64 320.51 161.72 320.93 161.88C321.35 162.04 321.72 162.32 322.04 162.72C322.38 163.1 322.65 163.62 322.85 164.28C323.05 164.92 323.15 165.74 323.15 166.74C323.15 167.72 323.05 168.54 322.85 169.2C322.65 169.84 322.38 170.36 322.04 170.76C321.72 171.14 321.35 171.41 320.93 171.57C320.51 171.73 320.07 171.81 319.61 171.81C319.15 171.81 318.7 171.73 318.26 171.57C317.84 171.41 317.46 171.14 317.12 170.76C316.8 170.36 316.54 169.84 316.34 169.2C316.16 168.54 316.07 167.72 316.07 166.74ZM318.17 166.74C318.17 167.42 318.2 167.97 318.26 168.39C318.34 168.81 318.44 169.14 318.56 169.38C318.7 169.62 318.85 169.78 319.01 169.86C319.19 169.94 319.39 169.98 319.61 169.98C319.83 169.98 320.03 169.95 320.21 169.89C320.39 169.83 320.54 169.69 320.66 169.47C320.78 169.23 320.87 168.9 320.93 168.48C321.01 168.04 321.05 167.46 321.05 166.74C321.05 166.04 321.01 165.48 320.93 165.06C320.87 164.62 320.78 164.29 320.66 164.07C320.54 163.83 320.39 163.67 320.21 163.59C320.03 163.51 319.83 163.47 319.61 163.47C319.39 163.47 319.19 163.51 319.01 163.59C318.83 163.65 318.68 163.8 318.56 164.04C318.44 164.26 318.34 164.59 318.26 165.03C318.2 165.45 318.17 166.02 318.17 166.74Z" fill="#FFFDF6"/>
</svg>
